<svg width="83" height="83" viewBox="0 0 83 83" fill="none" xmlns="http://www.w3.org/2000/svg">
<path d="M24.4686 9.88041L20.3669 17.3106H14.2689V23.9928H16.6022L18.9913 35.8791H15.2594L20.1947 57.7082L23.359 57.6784L26.541 73.5394H56.6666L56.8769 72.4831L59.8461 57.6764L62.8559 57.7062L67.7784 35.8772H64.2138L66.5877 23.9908H69.149V17.3086H62.6709L58.554 9.87842L24.4686 9.88041ZM26.2522 12.015H56.7983L59.3951 16.7397H23.6351L26.2522 12.015ZM16.9645 19.4352H66.4306V21.8781H16.9645V19.4352ZM18.4947 38.0018H64.5609L60.5884 55.5538L41.4961 55.3966L22.4672 55.5538L18.4947 38.0018Z" fill="#30261C" fill-opacity="0.8"/>
</svg>
