<svg width="83" height="83" viewBox="0 0 83 83" fill="none" xmlns="http://www.w3.org/2000/svg">
<path fill-rule="evenodd" clip-rule="evenodd" d="M23.6914 10.7549C23.1773 10.755 22.6751 10.8843 22.2494 11.1261C21.8237 11.3679 21.494 11.7111 21.3027 12.1116L16.9785 21.1851H66.4394L62.1152 12.1116C61.924 11.7111 61.5943 11.3679 61.1686 11.1261C60.7428 10.8843 60.2406 10.755 59.7266 10.7549H23.6914ZM21.1483 69.413L17.2668 48.2501H66.1511L62.2696 69.413C62.1762 69.923 61.8684 70.388 61.402 70.724C60.9356 71.06 60.3413 71.2448 59.7266 71.245H23.6914C23.0767 71.2448 22.4824 71.06 22.0159 70.724C21.5495 70.388 21.2417 69.923 21.1483 69.413ZM16.5667 26.5817H66.8564C69.9451 26.5817 72.4419 28.405 72.4419 30.6518V38.7834C72.4419 41.0302 69.94 42.8449 66.8564 42.8449H16.5615C13.4728 42.8449 10.9761 41.0302 10.9761 38.7834V30.6518C10.9761 28.405 13.4831 26.5817 16.5667 26.5817Z" fill="#30261C" fill-opacity="0.8"/>
</svg>
