<svg width="83" height="83" viewBox="0 0 83 83" fill="none" xmlns="http://www.w3.org/2000/svg">
<path d="M65.1702 17.15H44.5901V6.85999H37.7301V17.15H17.15C11.4768 17.15 6.85999 21.7668 6.85999 27.4401V61.7402C6.85999 65.5235 9.93671 68.6002 13.72 68.6002H68.6002C72.3835 68.6002 75.4602 65.5235 75.4602 61.7402V27.4401C75.4602 21.7668 70.8434 17.15 65.1702 17.15ZM17.15 24.01H65.1702C66.0799 24.01 66.9523 24.3714 67.5956 25.0147C68.2388 25.6579 68.6002 26.5304 68.6002 27.4401L68.6036 38.1417C65.5303 38.9237 63.5649 40.6593 62.0317 42.0245C60.2927 43.568 59.1436 44.5901 56.5849 44.5901C54.0295 44.5901 52.8804 43.568 51.1414 42.0279C49.1006 40.2134 46.3085 37.7301 41.1429 37.7301C35.9808 37.7301 33.1888 40.2134 31.1479 42.0279C29.4089 43.5714 28.2633 44.5901 25.7079 44.5901C23.1594 44.5901 22.0138 43.5714 20.2816 42.0279C18.7484 40.6627 16.7899 38.9237 13.72 38.1417V27.4401C13.72 26.5304 14.0814 25.6579 14.7246 25.0147C15.3679 24.3714 16.2403 24.01 17.15 24.01ZM13.72 61.7402V45.5711C14.3751 45.993 15.0028 46.5109 15.7197 47.1523C17.7606 48.9668 20.5492 51.4501 25.7079 51.4501C30.8666 51.4501 33.6621 48.9668 35.7029 47.1523C37.442 45.6088 38.5876 44.5901 41.1429 44.5901C43.6983 44.5901 44.8474 45.6122 46.5864 47.1523C48.6272 48.9668 51.4193 51.4501 56.5849 51.4501C61.7505 51.4501 64.5459 48.9668 66.5868 47.1523C67.3105 46.5075 67.9416 45.9861 68.6036 45.5608L68.607 61.7402H13.72Z" fill="#30261C" fill-opacity="0.8"/>
</svg>
