<svg width="83" height="83" viewBox="0 0 83 83" fill="none" xmlns="http://www.w3.org/2000/svg">
<path d="M64.6557 29.3609H8.06055C7.37827 29.3609 6.72395 29.632 6.24151 30.1144C5.75907 30.5969 5.48804 31.2512 5.48804 31.9335V47.3685C5.49573 51.7482 6.43234 56.0764 8.23605 60.0673C10.0398 64.0583 12.6695 67.6213 15.9517 70.5211H8.06055C7.37827 70.5211 6.72395 70.7921 6.24151 71.2745C5.75907 71.757 5.48804 72.4113 5.48804 73.0936C5.48804 73.7759 5.75907 74.4302 6.24151 74.9126C6.72395 75.3951 7.37827 75.6661 8.06055 75.6661H64.6557C65.338 75.6661 65.9923 75.3951 66.4748 74.9126C66.9572 74.4302 67.2282 73.7759 67.2282 73.0936C67.2282 72.4113 66.9572 71.757 66.4748 71.2745C65.9923 70.7921 65.338 70.5211 64.6557 70.5211H56.7646C60.7043 67.0291 63.6919 62.5931 65.4468 57.6296C68.7142 57.4283 71.7819 55.9887 74.0248 53.6042C76.2678 51.2196 77.5171 48.0696 77.5183 44.796V42.2235C77.5183 38.8121 76.1631 35.5405 73.7509 33.1283C71.3387 30.7161 68.0671 29.3609 64.6557 29.3609ZM72.3732 44.796C72.3721 46.4603 71.8329 48.0797 70.8362 49.4126C69.8394 50.7455 68.4385 51.7204 66.8424 52.192C67.097 50.5967 67.226 48.9839 67.2282 47.3685V34.9497C68.7325 35.4816 70.035 36.4666 70.9564 37.7692C71.8778 39.0718 72.3728 40.628 72.3732 42.2235V44.796ZM33.7856 21.6434V11.3534C33.7856 10.6711 34.0567 10.0168 34.5391 9.53435C35.0215 9.05191 35.6759 8.78088 36.3581 8.78088C37.0404 8.78088 37.6947 9.05191 38.1772 9.53435C38.6596 10.0168 38.9306 10.6711 38.9306 11.3534V21.6434C38.9306 22.3257 38.6596 22.98 38.1772 23.4625C37.6947 23.9449 37.0404 24.2159 36.3581 24.2159C35.6759 24.2159 35.0215 23.9449 34.5391 23.4625C34.0567 22.98 33.7856 22.3257 33.7856 21.6434ZM44.0757 21.6434V11.3534C44.0757 10.6711 44.3467 10.0168 44.8291 9.53435C45.3116 9.05191 45.9659 8.78088 46.6482 8.78088C47.3304 8.78088 47.9848 9.05191 48.4672 9.53435C48.9496 10.0168 49.2207 10.6711 49.2207 11.3534V21.6434C49.2207 22.3257 48.9496 22.98 48.4672 23.4625C47.9848 23.9449 47.3304 24.2159 46.6482 24.2159C45.9659 24.2159 45.3116 23.9449 44.8291 23.4625C44.3467 22.98 44.0757 22.3257 44.0757 21.6434ZM23.4956 21.6434V11.3534C23.4956 10.6711 23.7666 10.0168 24.2491 9.53435C24.7315 9.05191 25.3858 8.78088 26.0681 8.78088C26.7504 8.78088 27.4047 9.05191 27.8871 9.53435C28.3696 10.0168 28.6406 10.6711 28.6406 11.3534V21.6434C28.6406 22.3257 28.3696 22.98 27.8871 23.4625C27.4047 23.9449 26.7504 24.2159 26.0681 24.2159C25.3858 24.2159 24.7315 23.9449 24.2491 23.4625C23.7666 22.98 23.4956 22.3257 23.4956 21.6434Z" fill="#30261C" fill-opacity="0.8"/>
</svg>
